<mxfile host="app.diagrams.net" modified="2023-05-15T20:03:28.246Z" agent="Mozilla/5.0 (Windows NT 10.0; Win64; x64) AppleWebKit/537.36 (KHTML, like Gecko) Chrome/113.0.0.0 Safari/537.36" etag="u7nDABY-pkyVLhY5vlr7" version="21.3.2" type="device">
  <diagram name="Page-1" id="2c0d36ab-eaac-3732-788b-9136903baeff">
    <mxGraphModel dx="2530.5" dy="696" grid="1" gridSize="10" guides="1" tooltips="1" connect="1" arrows="1" fold="1" page="1" pageScale="1.5" pageWidth="827" pageHeight="1169" background="none" math="0" shadow="0">
      <root>
        <mxCell id="0" />
        <mxCell id="1" parent="0" />
        <mxCell id="6CKovhyk9KVXwrnFC-rc-129" value="&amp;nbsp;" style="edgeStyle=orthogonalEdgeStyle;rounded=0;orthogonalLoop=1;jettySize=auto;html=1;exitX=0.5;exitY=1;exitDx=0;exitDy=0;strokeWidth=2;" edge="1" parent="1" source="2" target="6CKovhyk9KVXwrnFC-rc-125">
          <mxGeometry relative="1" as="geometry" />
        </mxCell>
        <mxCell id="2" value="NAVBAR" style="rounded=1;fillColor=#050c76;gradientColor=none;strokeColor=none;fontColor=#FFFFFF;fontStyle=1;fontFamily=Tahoma;fontSize=17;strokeWidth=2;" parent="1" vertex="1">
          <mxGeometry x="145" y="150" width="110" height="60" as="geometry" />
        </mxCell>
        <mxCell id="6CKovhyk9KVXwrnFC-rc-128" style="edgeStyle=orthogonalEdgeStyle;rounded=0;orthogonalLoop=1;jettySize=auto;html=1;exitX=0.5;exitY=1;exitDx=0;exitDy=0;entryX=0.5;entryY=0;entryDx=0;entryDy=0;strokeWidth=2;" edge="1" parent="1" source="6CKovhyk9KVXwrnFC-rc-124" target="2">
          <mxGeometry relative="1" as="geometry" />
        </mxCell>
        <mxCell id="6CKovhyk9KVXwrnFC-rc-124" value="INICIO" style="ellipse;whiteSpace=wrap;html=1;fillColor=#990099;fontColor=#ffffff;fontSize=17;fontStyle=1" vertex="1" parent="1">
          <mxGeometry x="140" y="50" width="120" height="70" as="geometry" />
        </mxCell>
        <mxCell id="6CKovhyk9KVXwrnFC-rc-130" style="edgeStyle=orthogonalEdgeStyle;rounded=0;orthogonalLoop=1;jettySize=auto;html=1;exitX=0.5;exitY=1;exitDx=0;exitDy=0;entryX=0.5;entryY=0;entryDx=0;entryDy=0;strokeWidth=2;" edge="1" parent="1" source="6CKovhyk9KVXwrnFC-rc-125" target="6CKovhyk9KVXwrnFC-rc-127">
          <mxGeometry relative="1" as="geometry" />
        </mxCell>
        <mxCell id="6CKovhyk9KVXwrnFC-rc-125" value="MENU" style="rounded=1;fillColor=#050c76;gradientColor=none;strokeColor=none;fontColor=#FFFFFF;fontStyle=1;fontFamily=Tahoma;fontSize=17;" vertex="1" parent="1">
          <mxGeometry x="145" y="240" width="110" height="60" as="geometry" />
        </mxCell>
        <mxCell id="6CKovhyk9KVXwrnFC-rc-137" style="edgeStyle=orthogonalEdgeStyle;rounded=0;orthogonalLoop=1;jettySize=auto;html=1;exitX=0.5;exitY=1;exitDx=0;exitDy=0;strokeWidth=2;entryX=0.5;entryY=0;entryDx=0;entryDy=0;" edge="1" parent="1" source="6CKovhyk9KVXwrnFC-rc-126" target="6CKovhyk9KVXwrnFC-rc-206">
          <mxGeometry relative="1" as="geometry" />
        </mxCell>
        <mxCell id="6CKovhyk9KVXwrnFC-rc-126" value="DASHBOARD" style="rounded=1;fillColor=#050c76;gradientColor=none;strokeColor=none;fontColor=#FFFFFF;fontStyle=1;fontFamily=Tahoma;fontSize=17;" vertex="1" parent="1">
          <mxGeometry x="15" y="480" width="130" height="60" as="geometry" />
        </mxCell>
        <mxCell id="6CKovhyk9KVXwrnFC-rc-133" style="edgeStyle=orthogonalEdgeStyle;rounded=0;orthogonalLoop=1;jettySize=auto;html=1;exitX=0;exitY=0.5;exitDx=0;exitDy=0;entryX=0.5;entryY=0;entryDx=0;entryDy=0;strokeWidth=2;" edge="1" parent="1" source="6CKovhyk9KVXwrnFC-rc-127" target="6CKovhyk9KVXwrnFC-rc-126">
          <mxGeometry relative="1" as="geometry" />
        </mxCell>
        <mxCell id="6CKovhyk9KVXwrnFC-rc-159" style="edgeStyle=orthogonalEdgeStyle;rounded=0;orthogonalLoop=1;jettySize=auto;html=1;exitX=1;exitY=0.5;exitDx=0;exitDy=0;entryX=0.5;entryY=0;entryDx=0;entryDy=0;strokeWidth=2;" edge="1" parent="1" source="6CKovhyk9KVXwrnFC-rc-127" target="6CKovhyk9KVXwrnFC-rc-156">
          <mxGeometry relative="1" as="geometry" />
        </mxCell>
        <mxCell id="6CKovhyk9KVXwrnFC-rc-127" value="BUSCAR &lt;br&gt;COMIDA" style="rhombus;whiteSpace=wrap;html=1;fillColor=#9AC7BF;fontColor=#000000;fontStyle=1;fontSize=17;" vertex="1" parent="1">
          <mxGeometry x="110" y="330" width="180" height="110" as="geometry" />
        </mxCell>
        <mxCell id="6CKovhyk9KVXwrnFC-rc-224" style="edgeStyle=orthogonalEdgeStyle;rounded=0;orthogonalLoop=1;jettySize=auto;html=1;exitX=1;exitY=0.5;exitDx=0;exitDy=0;entryX=1;entryY=0.5;entryDx=0;entryDy=0;strokeWidth=2;" edge="1" parent="1" source="6CKovhyk9KVXwrnFC-rc-136" target="6CKovhyk9KVXwrnFC-rc-221">
          <mxGeometry relative="1" as="geometry">
            <Array as="points">
              <mxPoint x="1290" y="315" />
              <mxPoint x="1290" y="805" />
            </Array>
          </mxGeometry>
        </mxCell>
        <mxCell id="6CKovhyk9KVXwrnFC-rc-136" value="GUARDAR RECETA&lt;br&gt;&amp;nbsp;|| FAVORITOS&amp;nbsp;" style="rhombus;whiteSpace=wrap;html=1;fillColor=#9AC7BF;fontColor=#000000;fontStyle=1;fontSize=17;" vertex="1" parent="1">
          <mxGeometry x="948.75" y="260" width="202.5" height="110" as="geometry" />
        </mxCell>
        <mxCell id="6CKovhyk9KVXwrnFC-rc-223" style="edgeStyle=orthogonalEdgeStyle;rounded=0;orthogonalLoop=1;jettySize=auto;html=1;exitX=0.5;exitY=1;exitDx=0;exitDy=0;entryX=0.5;entryY=0;entryDx=0;entryDy=0;strokeWidth=2;" edge="1" parent="1" source="6CKovhyk9KVXwrnFC-rc-138" target="6CKovhyk9KVXwrnFC-rc-221">
          <mxGeometry relative="1" as="geometry" />
        </mxCell>
        <mxCell id="6CKovhyk9KVXwrnFC-rc-138" value="DASHBOARD" style="rounded=1;fillColor=#050c76;gradientColor=none;strokeColor=none;fontColor=#FFFFFF;fontStyle=1;fontFamily=Tahoma;fontSize=17;" vertex="1" parent="1">
          <mxGeometry x="990" y="670" width="130" height="60" as="geometry" />
        </mxCell>
        <mxCell id="6CKovhyk9KVXwrnFC-rc-143" style="edgeStyle=orthogonalEdgeStyle;rounded=0;orthogonalLoop=1;jettySize=auto;html=1;exitX=0.5;exitY=1;exitDx=0;exitDy=0;strokeWidth=2;" edge="1" parent="1" source="6CKovhyk9KVXwrnFC-rc-139" target="6CKovhyk9KVXwrnFC-rc-138">
          <mxGeometry relative="1" as="geometry" />
        </mxCell>
        <mxCell id="6CKovhyk9KVXwrnFC-rc-139" value="REGISTRARSE" style="rounded=1;fillColor=#990099;gradientColor=none;strokeColor=none;fontColor=#FFFFFF;fontStyle=1;fontFamily=Tahoma;fontSize=17;" vertex="1" parent="1">
          <mxGeometry x="1120" y="550" width="130" height="60" as="geometry" />
        </mxCell>
        <mxCell id="6CKovhyk9KVXwrnFC-rc-149" style="edgeStyle=orthogonalEdgeStyle;rounded=0;orthogonalLoop=1;jettySize=auto;html=1;exitX=1;exitY=0.5;exitDx=0;exitDy=0;entryX=0.5;entryY=0;entryDx=0;entryDy=0;strokeWidth=2;" edge="1" parent="1" source="6CKovhyk9KVXwrnFC-rc-144" target="6CKovhyk9KVXwrnFC-rc-139">
          <mxGeometry relative="1" as="geometry" />
        </mxCell>
        <mxCell id="6CKovhyk9KVXwrnFC-rc-154" style="edgeStyle=orthogonalEdgeStyle;rounded=0;orthogonalLoop=1;jettySize=auto;html=1;exitX=0;exitY=0.5;exitDx=0;exitDy=0;entryX=0.5;entryY=0;entryDx=0;entryDy=0;strokeWidth=2;" edge="1" parent="1" source="6CKovhyk9KVXwrnFC-rc-144" target="6CKovhyk9KVXwrnFC-rc-152">
          <mxGeometry relative="1" as="geometry" />
        </mxCell>
        <mxCell id="6CKovhyk9KVXwrnFC-rc-144" value="TIENE CUENTA" style="rhombus;whiteSpace=wrap;html=1;fillColor=#9AC7BF;fontColor=#000000;fontStyle=1;fontSize=17;" vertex="1" parent="1">
          <mxGeometry x="980" y="460" width="180" height="70" as="geometry" />
        </mxCell>
        <mxCell id="6CKovhyk9KVXwrnFC-rc-150" value="&lt;font style=&quot;font-size: 17px;&quot;&gt;&lt;b style=&quot;font-size: 17px;&quot;&gt;v&lt;/b&gt;&lt;/font&gt;" style="text;html=1;align=center;verticalAlign=middle;resizable=0;points=[];autosize=1;strokeColor=none;fillColor=none;fontSize=17;" vertex="1" parent="1">
          <mxGeometry x="80" y="350" width="30" height="30" as="geometry" />
        </mxCell>
        <mxCell id="6CKovhyk9KVXwrnFC-rc-151" value="&lt;font style=&quot;font-size: 17px;&quot;&gt;&lt;b style=&quot;font-size: 17px;&quot;&gt;v&lt;/b&gt;&lt;/font&gt;" style="text;html=1;align=center;verticalAlign=middle;resizable=0;points=[];autosize=1;strokeColor=none;fillColor=none;fontSize=17;" vertex="1" parent="1">
          <mxGeometry x="930" y="275" width="30" height="30" as="geometry" />
        </mxCell>
        <mxCell id="6CKovhyk9KVXwrnFC-rc-155" style="edgeStyle=orthogonalEdgeStyle;rounded=0;orthogonalLoop=1;jettySize=auto;html=1;exitX=0.5;exitY=1;exitDx=0;exitDy=0;entryX=0.5;entryY=0;entryDx=0;entryDy=0;strokeWidth=2;" edge="1" parent="1" source="6CKovhyk9KVXwrnFC-rc-152" target="6CKovhyk9KVXwrnFC-rc-138">
          <mxGeometry relative="1" as="geometry" />
        </mxCell>
        <mxCell id="6CKovhyk9KVXwrnFC-rc-152" value="INICIAR SESIÃ“N" style="rounded=1;fillColor=#990099;gradientColor=none;strokeColor=none;fontColor=#FFFFFF;fontStyle=1;fontFamily=Tahoma;fontSize=17;" vertex="1" parent="1">
          <mxGeometry x="860" y="550" width="160" height="60" as="geometry" />
        </mxCell>
        <mxCell id="6CKovhyk9KVXwrnFC-rc-156" value="FIN" style="ellipse;whiteSpace=wrap;html=1;fillColor=#990099;fontColor=#ffffff;fontSize=17;fontStyle=1" vertex="1" parent="1">
          <mxGeometry x="160" y="680" width="120" height="70" as="geometry" />
        </mxCell>
        <mxCell id="6CKovhyk9KVXwrnFC-rc-162" style="edgeStyle=orthogonalEdgeStyle;rounded=0;orthogonalLoop=1;jettySize=auto;html=1;exitX=0.5;exitY=1;exitDx=0;exitDy=0;entryX=0.507;entryY=0.103;entryDx=0;entryDy=0;strokeWidth=2;entryPerimeter=0;" edge="1" parent="1" source="6CKovhyk9KVXwrnFC-rc-163" target="6CKovhyk9KVXwrnFC-rc-219">
          <mxGeometry relative="1" as="geometry">
            <mxPoint x="1052.63" y="165.61000000000013" as="targetPoint" />
          </mxGeometry>
        </mxCell>
        <mxCell id="6CKovhyk9KVXwrnFC-rc-163" value="INICIO" style="ellipse;whiteSpace=wrap;html=1;fillColor=#990099;fontColor=#ffffff;fontSize=17;fontStyle=1" vertex="1" parent="1">
          <mxGeometry x="989.5" y="60" width="120.5" height="70" as="geometry" />
        </mxCell>
        <mxCell id="6CKovhyk9KVXwrnFC-rc-190" style="edgeStyle=orthogonalEdgeStyle;rounded=0;orthogonalLoop=1;jettySize=auto;html=1;exitX=0;exitY=0.5;exitDx=0;exitDy=0;entryX=1;entryY=0.5;entryDx=0;entryDy=0;dashed=1;" edge="1" parent="1" source="6CKovhyk9KVXwrnFC-rc-186" target="6CKovhyk9KVXwrnFC-rc-125">
          <mxGeometry relative="1" as="geometry" />
        </mxCell>
        <mxCell id="6CKovhyk9KVXwrnFC-rc-186" value="BUSCADOR, &#xa;FILTROS, &#xa;SECCIÃ“N DE &#xa;RECOMENDADOS" style="rounded=1;fillColor=none;gradientColor=none;strokeColor=#050c76;fontColor=#000000;fontStyle=1;fontFamily=Tahoma;fontSize=17;labelBorderColor=none;perimeterSpacing=4;strokeWidth=4;" vertex="1" parent="1">
          <mxGeometry x="330" y="217.5" width="210" height="105" as="geometry" />
        </mxCell>
        <mxCell id="6CKovhyk9KVXwrnFC-rc-191" value="VER RECETA" style="text;html=1;strokeColor=none;fillColor=none;align=center;verticalAlign=middle;whiteSpace=wrap;rounded=0;fontSize=20;fontStyle=1" vertex="1" parent="1">
          <mxGeometry x="17.5" y="10" width="375" height="30" as="geometry" />
        </mxCell>
        <mxCell id="6CKovhyk9KVXwrnFC-rc-192" value="PUNTUAR O AÃ‘ADIR A FAVORITOS" style="text;html=1;strokeColor=none;fillColor=none;align=center;verticalAlign=middle;whiteSpace=wrap;rounded=0;fontSize=20;fontStyle=1" vertex="1" parent="1">
          <mxGeometry x="882.37" y="10" width="345.25" height="30" as="geometry" />
        </mxCell>
        <mxCell id="6CKovhyk9KVXwrnFC-rc-205" value="&lt;font style=&quot;font-size: 17px;&quot;&gt;&lt;b style=&quot;font-size: 17px;&quot;&gt;v&lt;/b&gt;&lt;/font&gt;" style="text;html=1;align=center;verticalAlign=middle;resizable=0;points=[];autosize=1;strokeColor=none;fillColor=none;fontSize=17;" vertex="1" parent="1">
          <mxGeometry x="950" y="460" width="30" height="30" as="geometry" />
        </mxCell>
        <mxCell id="6CKovhyk9KVXwrnFC-rc-217" style="edgeStyle=orthogonalEdgeStyle;rounded=0;orthogonalLoop=1;jettySize=auto;html=1;exitX=0.5;exitY=1;exitDx=0;exitDy=0;entryX=0.5;entryY=0;entryDx=0;entryDy=0;strokeWidth=2;" edge="1" parent="1" source="6CKovhyk9KVXwrnFC-rc-206" target="6CKovhyk9KVXwrnFC-rc-156">
          <mxGeometry relative="1" as="geometry" />
        </mxCell>
        <mxCell id="6CKovhyk9KVXwrnFC-rc-206" value="RECETA" style="rounded=1;fillColor=#990099;gradientColor=none;strokeColor=#870000;fontColor=#FFFFFF;fontStyle=1;fontFamily=Tahoma;fontSize=17;" vertex="1" parent="1">
          <mxGeometry x="17.5" y="570" width="130" height="60" as="geometry" />
        </mxCell>
        <mxCell id="6CKovhyk9KVXwrnFC-rc-212" value="" style="edgeStyle=orthogonalEdgeStyle;rounded=0;orthogonalLoop=1;jettySize=auto;html=1;exitX=0;exitY=0.5;exitDx=0;exitDy=0;strokeWidth=2;" edge="1" parent="1" source="6CKovhyk9KVXwrnFC-rc-136" target="6CKovhyk9KVXwrnFC-rc-211">
          <mxGeometry relative="1" as="geometry">
            <mxPoint x="949" y="315" as="sourcePoint" />
            <mxPoint x="929" y="500" as="targetPoint" />
            <Array as="points" />
          </mxGeometry>
        </mxCell>
        <mxCell id="6CKovhyk9KVXwrnFC-rc-214" style="edgeStyle=orthogonalEdgeStyle;rounded=0;orthogonalLoop=1;jettySize=auto;html=1;exitX=0;exitY=0.5;exitDx=0;exitDy=0;entryX=0.5;entryY=0;entryDx=0;entryDy=0;strokeWidth=2;" edge="1" parent="1" source="6CKovhyk9KVXwrnFC-rc-211" target="6CKovhyk9KVXwrnFC-rc-213">
          <mxGeometry relative="1" as="geometry" />
        </mxCell>
        <mxCell id="6CKovhyk9KVXwrnFC-rc-215" style="edgeStyle=orthogonalEdgeStyle;rounded=0;orthogonalLoop=1;jettySize=auto;html=1;exitX=1;exitY=0.5;exitDx=0;exitDy=0;entryX=0.5;entryY=0;entryDx=0;entryDy=0;strokeWidth=2;" edge="1" parent="1" source="6CKovhyk9KVXwrnFC-rc-211" target="6CKovhyk9KVXwrnFC-rc-144">
          <mxGeometry relative="1" as="geometry" />
        </mxCell>
        <mxCell id="6CKovhyk9KVXwrnFC-rc-211" value="SESIÃ“N INICIADA" style="rhombus;whiteSpace=wrap;html=1;fillColor=#9AC7BF;fontColor=#000000;fontStyle=1;fontSize=17;" vertex="1" parent="1">
          <mxGeometry x="840" y="367.5" width="180" height="70" as="geometry" />
        </mxCell>
        <mxCell id="6CKovhyk9KVXwrnFC-rc-222" style="edgeStyle=orthogonalEdgeStyle;rounded=0;orthogonalLoop=1;jettySize=auto;html=1;exitX=0.5;exitY=1;exitDx=0;exitDy=0;entryX=0;entryY=0.5;entryDx=0;entryDy=0;strokeWidth=2;" edge="1" parent="1" source="6CKovhyk9KVXwrnFC-rc-213" target="6CKovhyk9KVXwrnFC-rc-221">
          <mxGeometry relative="1" as="geometry" />
        </mxCell>
        <mxCell id="6CKovhyk9KVXwrnFC-rc-213" value="AGREGAR AÂ &#xa;FAVORITOS O&#xa;PUNTUAR" style="rounded=1;fillColor=#050c76;gradientColor=none;strokeColor=none;fontColor=#FFFFFF;fontStyle=1;fontFamily=Tahoma;fontSize=17;" vertex="1" parent="1">
          <mxGeometry x="630" y="477" width="190" height="80" as="geometry" />
        </mxCell>
        <mxCell id="6CKovhyk9KVXwrnFC-rc-216" value="&lt;font style=&quot;font-size: 17px;&quot;&gt;&lt;b style=&quot;font-size: 17px;&quot;&gt;v&lt;/b&gt;&lt;/font&gt;" style="text;html=1;align=center;verticalAlign=middle;resizable=0;points=[];autosize=1;strokeColor=none;fillColor=none;fontSize=17;" vertex="1" parent="1">
          <mxGeometry x="820" y="360" width="30" height="30" as="geometry" />
        </mxCell>
        <mxCell id="6CKovhyk9KVXwrnFC-rc-220" style="edgeStyle=orthogonalEdgeStyle;rounded=0;orthogonalLoop=1;jettySize=auto;html=1;exitX=0.5;exitY=1;exitDx=0;exitDy=0;entryX=0.5;entryY=0;entryDx=0;entryDy=0;strokeWidth=2;" edge="1" parent="1" source="6CKovhyk9KVXwrnFC-rc-219" target="6CKovhyk9KVXwrnFC-rc-136">
          <mxGeometry relative="1" as="geometry">
            <mxPoint x="1049.9565217391305" y="270" as="targetPoint" />
          </mxGeometry>
        </mxCell>
        <mxCell id="6CKovhyk9KVXwrnFC-rc-219" value="SELECCIONAR&#xa;Â RECETA" style="rounded=1;fillColor=#050c76;gradientColor=none;strokeColor=none;fontColor=#FFFFFF;fontStyle=1;fontFamily=Tahoma;fontSize=17;strokeWidth=2;" vertex="1" parent="1">
          <mxGeometry x="964.75" y="157.5" width="170" height="60" as="geometry" />
        </mxCell>
        <mxCell id="6CKovhyk9KVXwrnFC-rc-221" value="FIN" style="ellipse;whiteSpace=wrap;html=1;fillColor=#990099;fontColor=#ffffff;fontSize=17;fontStyle=1" vertex="1" parent="1">
          <mxGeometry x="995" y="770" width="120" height="70" as="geometry" />
        </mxCell>
        <mxCell id="6CKovhyk9KVXwrnFC-rc-241" style="edgeStyle=orthogonalEdgeStyle;rounded=0;orthogonalLoop=1;jettySize=auto;html=1;exitX=0.5;exitY=1;exitDx=0;exitDy=0;entryX=0.5;entryY=0;entryDx=0;entryDy=0;strokeWidth=2;" edge="1" parent="1" source="6CKovhyk9KVXwrnFC-rc-226" target="6CKovhyk9KVXwrnFC-rc-240">
          <mxGeometry relative="1" as="geometry" />
        </mxCell>
        <mxCell id="6CKovhyk9KVXwrnFC-rc-226" value="INICIO" style="ellipse;whiteSpace=wrap;html=1;fillColor=#990099;fontColor=#ffffff;fontSize=17;fontStyle=1" vertex="1" parent="1">
          <mxGeometry x="125" y="970" width="120" height="70" as="geometry" />
        </mxCell>
        <mxCell id="6CKovhyk9KVXwrnFC-rc-227" value="INICIAR SESIÃ“N" style="text;html=1;strokeColor=none;fillColor=none;align=center;verticalAlign=middle;whiteSpace=wrap;rounded=0;fontSize=20;fontStyle=1" vertex="1" parent="1">
          <mxGeometry x="2.5" y="930" width="375" height="30" as="geometry" />
        </mxCell>
        <mxCell id="6CKovhyk9KVXwrnFC-rc-228" style="edgeStyle=orthogonalEdgeStyle;rounded=0;orthogonalLoop=1;jettySize=auto;html=1;exitX=0.5;exitY=1;exitDx=0;exitDy=0;entryX=0.5;entryY=0;entryDx=0;entryDy=0;strokeWidth=2;" edge="1" parent="1" source="6CKovhyk9KVXwrnFC-rc-229" target="6CKovhyk9KVXwrnFC-rc-238">
          <mxGeometry relative="1" as="geometry" />
        </mxCell>
        <mxCell id="6CKovhyk9KVXwrnFC-rc-229" value="DASHBOARD" style="rounded=1;fillColor=#050c76;gradientColor=none;strokeColor=none;fontColor=#FFFFFF;fontStyle=1;fontFamily=Tahoma;fontSize=17;" vertex="1" parent="1">
          <mxGeometry x="100" y="1370" width="130" height="60" as="geometry" />
        </mxCell>
        <mxCell id="6CKovhyk9KVXwrnFC-rc-230" style="edgeStyle=orthogonalEdgeStyle;rounded=0;orthogonalLoop=1;jettySize=auto;html=1;exitX=0.5;exitY=1;exitDx=0;exitDy=0;strokeWidth=2;" edge="1" parent="1" source="6CKovhyk9KVXwrnFC-rc-231" target="6CKovhyk9KVXwrnFC-rc-229">
          <mxGeometry relative="1" as="geometry" />
        </mxCell>
        <mxCell id="6CKovhyk9KVXwrnFC-rc-231" value="REGISTRARSE" style="rounded=1;fillColor=#990099;gradientColor=none;strokeColor=none;fontColor=#FFFFFF;fontStyle=1;fontFamily=Tahoma;fontSize=17;" vertex="1" parent="1">
          <mxGeometry x="230" y="1250" width="130" height="60" as="geometry" />
        </mxCell>
        <mxCell id="6CKovhyk9KVXwrnFC-rc-232" style="edgeStyle=orthogonalEdgeStyle;rounded=0;orthogonalLoop=1;jettySize=auto;html=1;exitX=1;exitY=0.5;exitDx=0;exitDy=0;entryX=0.5;entryY=0;entryDx=0;entryDy=0;strokeWidth=2;" edge="1" parent="1" source="6CKovhyk9KVXwrnFC-rc-234" target="6CKovhyk9KVXwrnFC-rc-231">
          <mxGeometry relative="1" as="geometry" />
        </mxCell>
        <mxCell id="6CKovhyk9KVXwrnFC-rc-233" style="edgeStyle=orthogonalEdgeStyle;rounded=0;orthogonalLoop=1;jettySize=auto;html=1;exitX=0;exitY=0.5;exitDx=0;exitDy=0;entryX=0.5;entryY=0;entryDx=0;entryDy=0;strokeWidth=2;" edge="1" parent="1" source="6CKovhyk9KVXwrnFC-rc-234" target="6CKovhyk9KVXwrnFC-rc-236">
          <mxGeometry relative="1" as="geometry" />
        </mxCell>
        <mxCell id="6CKovhyk9KVXwrnFC-rc-234" value="TIENE CUENTA" style="rhombus;whiteSpace=wrap;html=1;fillColor=#9AC7BF;fontColor=#000000;fontStyle=1;fontSize=17;" vertex="1" parent="1">
          <mxGeometry x="95" y="1170" width="180" height="70" as="geometry" />
        </mxCell>
        <mxCell id="6CKovhyk9KVXwrnFC-rc-235" style="edgeStyle=orthogonalEdgeStyle;rounded=0;orthogonalLoop=1;jettySize=auto;html=1;exitX=0.5;exitY=1;exitDx=0;exitDy=0;entryX=0.5;entryY=0;entryDx=0;entryDy=0;strokeWidth=2;" edge="1" parent="1" source="6CKovhyk9KVXwrnFC-rc-236" target="6CKovhyk9KVXwrnFC-rc-229">
          <mxGeometry relative="1" as="geometry" />
        </mxCell>
        <mxCell id="6CKovhyk9KVXwrnFC-rc-236" value="INICIAR SESIÃ“N" style="rounded=1;fillColor=#990099;gradientColor=none;strokeColor=none;fontColor=#FFFFFF;fontStyle=1;fontFamily=Tahoma;fontSize=17;" vertex="1" parent="1">
          <mxGeometry x="-30" y="1250" width="160" height="60" as="geometry" />
        </mxCell>
        <mxCell id="6CKovhyk9KVXwrnFC-rc-237" value="&lt;font style=&quot;font-size: 17px;&quot;&gt;&lt;b style=&quot;font-size: 17px;&quot;&gt;v&lt;/b&gt;&lt;/font&gt;" style="text;html=1;align=center;verticalAlign=middle;resizable=0;points=[];autosize=1;strokeColor=none;fillColor=none;fontSize=17;" vertex="1" parent="1">
          <mxGeometry x="60" y="1160" width="30" height="30" as="geometry" />
        </mxCell>
        <mxCell id="6CKovhyk9KVXwrnFC-rc-238" value="FIN" style="ellipse;whiteSpace=wrap;html=1;fillColor=#990099;fontColor=#ffffff;fontSize=17;fontStyle=1" vertex="1" parent="1">
          <mxGeometry x="105" y="1470" width="120" height="70" as="geometry" />
        </mxCell>
        <mxCell id="6CKovhyk9KVXwrnFC-rc-242" style="edgeStyle=orthogonalEdgeStyle;rounded=0;orthogonalLoop=1;jettySize=auto;html=1;exitX=0.5;exitY=1;exitDx=0;exitDy=0;entryX=0.5;entryY=0;entryDx=0;entryDy=0;" edge="1" parent="1" source="6CKovhyk9KVXwrnFC-rc-240" target="6CKovhyk9KVXwrnFC-rc-234">
          <mxGeometry relative="1" as="geometry" />
        </mxCell>
        <mxCell id="6CKovhyk9KVXwrnFC-rc-240" value="NAVBAR O FOOTER" style="rounded=1;fillColor=#050c76;gradientColor=none;strokeColor=none;fontColor=#FFFFFF;fontStyle=1;fontFamily=Tahoma;fontSize=17;" vertex="1" parent="1">
          <mxGeometry x="100" y="1080" width="170" height="60" as="geometry" />
        </mxCell>
        <mxCell id="6CKovhyk9KVXwrnFC-rc-243" value="PUBLICAR RECETA" style="text;html=1;strokeColor=none;fillColor=none;align=center;verticalAlign=middle;whiteSpace=wrap;rounded=0;fontSize=20;fontStyle=1" vertex="1" parent="1">
          <mxGeometry x="860" y="900" width="375" height="30" as="geometry" />
        </mxCell>
        <mxCell id="6CKovhyk9KVXwrnFC-rc-246" style="edgeStyle=orthogonalEdgeStyle;rounded=0;orthogonalLoop=1;jettySize=auto;html=1;exitX=0.5;exitY=1;exitDx=0;exitDy=0;entryX=0.5;entryY=0;entryDx=0;entryDy=0;" edge="1" parent="1" source="6CKovhyk9KVXwrnFC-rc-244" target="6CKovhyk9KVXwrnFC-rc-245">
          <mxGeometry relative="1" as="geometry" />
        </mxCell>
        <mxCell id="6CKovhyk9KVXwrnFC-rc-244" value="INICIO" style="ellipse;whiteSpace=wrap;html=1;fillColor=#990099;fontColor=#ffffff;fontSize=17;fontStyle=1" vertex="1" parent="1">
          <mxGeometry x="990" y="940" width="120" height="70" as="geometry" />
        </mxCell>
        <mxCell id="6CKovhyk9KVXwrnFC-rc-248" style="edgeStyle=orthogonalEdgeStyle;rounded=0;orthogonalLoop=1;jettySize=auto;html=1;exitX=0;exitY=0.5;exitDx=0;exitDy=0;strokeWidth=2;entryX=0.5;entryY=0;entryDx=0;entryDy=0;" edge="1" parent="1" source="6CKovhyk9KVXwrnFC-rc-245" target="6CKovhyk9KVXwrnFC-rc-256">
          <mxGeometry relative="1" as="geometry">
            <mxPoint x="870" y="1340" as="targetPoint" />
            <Array as="points">
              <mxPoint x="910" y="1075" />
              <mxPoint x="910" y="1430" />
              <mxPoint x="1060" y="1430" />
            </Array>
          </mxGeometry>
        </mxCell>
        <mxCell id="6CKovhyk9KVXwrnFC-rc-250" style="edgeStyle=orthogonalEdgeStyle;rounded=0;orthogonalLoop=1;jettySize=auto;html=1;exitX=1;exitY=0.5;exitDx=0;exitDy=0;entryX=0.5;entryY=0;entryDx=0;entryDy=0;strokeWidth=2;" edge="1" parent="1" source="6CKovhyk9KVXwrnFC-rc-245" target="6CKovhyk9KVXwrnFC-rc-249">
          <mxGeometry relative="1" as="geometry" />
        </mxCell>
        <mxCell id="6CKovhyk9KVXwrnFC-rc-245" value="SESIÃ“N INICIADA" style="rhombus;whiteSpace=wrap;html=1;fillColor=#9AC7BF;fontColor=#000000;fontStyle=1;fontSize=17;" vertex="1" parent="1">
          <mxGeometry x="958.75" y="1040" width="180" height="70" as="geometry" />
        </mxCell>
        <mxCell id="6CKovhyk9KVXwrnFC-rc-263" style="edgeStyle=orthogonalEdgeStyle;rounded=0;orthogonalLoop=1;jettySize=auto;html=1;exitX=0.5;exitY=1;exitDx=0;exitDy=0;entryX=0.5;entryY=0;entryDx=0;entryDy=0;strokeWidth=2;" edge="1" parent="1" source="6CKovhyk9KVXwrnFC-rc-247" target="6CKovhyk9KVXwrnFC-rc-261">
          <mxGeometry relative="1" as="geometry" />
        </mxCell>
        <mxCell id="6CKovhyk9KVXwrnFC-rc-247" value="NUEVA RECETA" style="rounded=1;fillColor=#990099;gradientColor=none;strokeColor=none;fontColor=#FFFFFF;fontStyle=1;fontFamily=Tahoma;fontSize=17;" vertex="1" parent="1">
          <mxGeometry x="980" y="1550" width="160" height="60" as="geometry" />
        </mxCell>
        <mxCell id="6CKovhyk9KVXwrnFC-rc-252" style="edgeStyle=orthogonalEdgeStyle;rounded=0;orthogonalLoop=1;jettySize=auto;html=1;exitX=0;exitY=0.5;exitDx=0;exitDy=0;entryX=0.5;entryY=0;entryDx=0;entryDy=0;strokeWidth=2;" edge="1" parent="1" source="6CKovhyk9KVXwrnFC-rc-249" target="6CKovhyk9KVXwrnFC-rc-251">
          <mxGeometry relative="1" as="geometry" />
        </mxCell>
        <mxCell id="6CKovhyk9KVXwrnFC-rc-254" style="edgeStyle=orthogonalEdgeStyle;rounded=0;orthogonalLoop=1;jettySize=auto;html=1;exitX=1;exitY=0.5;exitDx=0;exitDy=0;entryX=0.5;entryY=0;entryDx=0;entryDy=0;strokeWidth=2;" edge="1" parent="1" source="6CKovhyk9KVXwrnFC-rc-249" target="6CKovhyk9KVXwrnFC-rc-253">
          <mxGeometry relative="1" as="geometry" />
        </mxCell>
        <mxCell id="6CKovhyk9KVXwrnFC-rc-249" value="TIENE CUENTA" style="rhombus;whiteSpace=wrap;html=1;fillColor=#9AC7BF;fontColor=#000000;fontStyle=1;fontSize=17;" vertex="1" parent="1">
          <mxGeometry x="1080" y="1140" width="180" height="70" as="geometry" />
        </mxCell>
        <mxCell id="6CKovhyk9KVXwrnFC-rc-258" style="edgeStyle=orthogonalEdgeStyle;rounded=0;orthogonalLoop=1;jettySize=auto;html=1;exitX=0.5;exitY=1;exitDx=0;exitDy=0;entryX=0.5;entryY=0;entryDx=0;entryDy=0;strokeWidth=2;" edge="1" parent="1" source="6CKovhyk9KVXwrnFC-rc-251" target="6CKovhyk9KVXwrnFC-rc-257">
          <mxGeometry relative="1" as="geometry" />
        </mxCell>
        <mxCell id="6CKovhyk9KVXwrnFC-rc-251" value="INICIAR SESIÃ“N" style="rounded=1;fillColor=#990099;gradientColor=none;strokeColor=none;fontColor=#FFFFFF;fontStyle=1;fontFamily=Tahoma;fontSize=17;" vertex="1" parent="1">
          <mxGeometry x="980" y="1230" width="160" height="60" as="geometry" />
        </mxCell>
        <mxCell id="6CKovhyk9KVXwrnFC-rc-259" style="edgeStyle=orthogonalEdgeStyle;rounded=0;orthogonalLoop=1;jettySize=auto;html=1;exitX=0.5;exitY=1;exitDx=0;exitDy=0;strokeWidth=2;" edge="1" parent="1" source="6CKovhyk9KVXwrnFC-rc-253">
          <mxGeometry relative="1" as="geometry">
            <mxPoint x="1170" y="1340" as="targetPoint" />
          </mxGeometry>
        </mxCell>
        <mxCell id="6CKovhyk9KVXwrnFC-rc-253" value="REGISTRARSE" style="rounded=1;fillColor=#990099;gradientColor=none;strokeColor=none;fontColor=#FFFFFF;fontStyle=1;fontFamily=Tahoma;fontSize=17;" vertex="1" parent="1">
          <mxGeometry x="1220" y="1230" width="130" height="60" as="geometry" />
        </mxCell>
        <mxCell id="6CKovhyk9KVXwrnFC-rc-262" style="edgeStyle=orthogonalEdgeStyle;rounded=0;orthogonalLoop=1;jettySize=auto;html=1;exitX=0.5;exitY=1;exitDx=0;exitDy=0;entryX=0.5;entryY=0;entryDx=0;entryDy=0;strokeWidth=2;" edge="1" parent="1" source="6CKovhyk9KVXwrnFC-rc-256" target="6CKovhyk9KVXwrnFC-rc-247">
          <mxGeometry relative="1" as="geometry" />
        </mxCell>
        <mxCell id="6CKovhyk9KVXwrnFC-rc-256" value="NAVBAR" style="rounded=1;fillColor=#050c76;gradientColor=none;strokeColor=none;fontColor=#FFFFFF;fontStyle=1;fontFamily=Tahoma;fontSize=17;strokeWidth=2;" vertex="1" parent="1">
          <mxGeometry x="1004.75" y="1460" width="110" height="60" as="geometry" />
        </mxCell>
        <mxCell id="6CKovhyk9KVXwrnFC-rc-260" style="edgeStyle=orthogonalEdgeStyle;rounded=0;orthogonalLoop=1;jettySize=auto;html=1;exitX=0.5;exitY=1;exitDx=0;exitDy=0;entryX=0.5;entryY=0;entryDx=0;entryDy=0;strokeWidth=2;" edge="1" parent="1" source="6CKovhyk9KVXwrnFC-rc-257" target="6CKovhyk9KVXwrnFC-rc-256">
          <mxGeometry relative="1" as="geometry" />
        </mxCell>
        <mxCell id="6CKovhyk9KVXwrnFC-rc-257" value="DASHBOARD" style="rounded=1;fillColor=#050c76;gradientColor=none;strokeColor=none;fontColor=#FFFFFF;fontStyle=1;fontFamily=Tahoma;fontSize=17;" vertex="1" parent="1">
          <mxGeometry x="1105" y="1340" width="130" height="60" as="geometry" />
        </mxCell>
        <mxCell id="6CKovhyk9KVXwrnFC-rc-265" style="edgeStyle=orthogonalEdgeStyle;rounded=0;orthogonalLoop=1;jettySize=auto;html=1;exitX=0.5;exitY=1;exitDx=0;exitDy=0;entryX=0.5;entryY=0;entryDx=0;entryDy=0;strokeWidth=2;" edge="1" parent="1" source="6CKovhyk9KVXwrnFC-rc-261" target="6CKovhyk9KVXwrnFC-rc-264">
          <mxGeometry relative="1" as="geometry" />
        </mxCell>
        <mxCell id="6CKovhyk9KVXwrnFC-rc-261" value="ESPERAR APROBACIÃ“N" style="rounded=1;fillColor=#050c76;gradientColor=none;strokeColor=none;fontColor=#FFFFFF;fontStyle=1;fontFamily=Tahoma;fontSize=17;strokeWidth=2;" vertex="1" parent="1">
          <mxGeometry x="931.88" y="1640" width="256.25" height="60" as="geometry" />
        </mxCell>
        <mxCell id="6CKovhyk9KVXwrnFC-rc-264" value="FIN" style="ellipse;whiteSpace=wrap;html=1;fillColor=#990099;fontColor=#ffffff;fontSize=17;fontStyle=1" vertex="1" parent="1">
          <mxGeometry x="999.5" y="1740" width="120" height="70" as="geometry" />
        </mxCell>
        <mxCell id="6CKovhyk9KVXwrnFC-rc-266" value="&lt;font style=&quot;font-size: 17px;&quot;&gt;&lt;b style=&quot;font-size: 17px;&quot;&gt;v&lt;/b&gt;&lt;/font&gt;" style="text;html=1;align=center;verticalAlign=middle;resizable=0;points=[];autosize=1;strokeColor=none;fillColor=none;fontSize=17;" vertex="1" parent="1">
          <mxGeometry x="920" y="1040" width="30" height="30" as="geometry" />
        </mxCell>
        <mxCell id="6CKovhyk9KVXwrnFC-rc-267" value="&lt;font style=&quot;font-size: 17px;&quot;&gt;&lt;b style=&quot;font-size: 17px;&quot;&gt;v&lt;/b&gt;&lt;/font&gt;" style="text;html=1;align=center;verticalAlign=middle;resizable=0;points=[];autosize=1;strokeColor=none;fillColor=none;fontSize=17;" vertex="1" parent="1">
          <mxGeometry x="1060" y="1130" width="30" height="30" as="geometry" />
        </mxCell>
      </root>
    </mxGraphModel>
  </diagram>
</mxfile>
